<svg xmlns="http://www.w3.org/2000/svg" xmlns:xlink="http://www.w3.org/1999/xlink" width="512" zoomAndPan="magnify" viewBox="0 0 384 383.999986" height="512" preserveAspectRatio="xMidYMid meet" version="1.0"><defs><clipPath id="b00f8f5939"><path d="M 12.058594 12.058594 L 372 12.058594 L 372 372 L 12.058594 372 Z M 12.058594 12.058594 " clip-rule="nonzero"/></clipPath></defs><g clip-path="url(#b00f8f5939)"><path fill="#315486" d="M 192 12.058594 C 92.78125 12.058594 12.058594 92.78125 12.058594 192 C 12.058594 291.214844 92.78125 371.941406 192 371.941406 C 291.214844 371.941406 371.941406 291.214844 371.941406 192 C 371.941406 92.78125 291.214844 12.058594 192 12.058594 Z M 90.9375 312.570312 C 92.613281 258.214844 137.238281 214.492188 192 214.492188 C 246.757812 214.492188 291.382812 258.214844 293.058594 312.570312 C 265.683594 335.546875 230.449219 349.445312 192 349.445312 C 153.546875 349.445312 118.3125 335.546875 90.9375 312.570312 Z M 135.765625 135.765625 C 135.765625 104.761719 160.992188 79.535156 192 79.535156 C 223.003906 79.535156 248.230469 104.761719 248.230469 135.765625 C 248.230469 166.773438 223.003906 192 192 192 C 160.992188 192 135.765625 166.773438 135.765625 135.765625 Z M 313.390625 292.148438 C 305.25 250.109375 275.761719 215.695312 236.703125 200.476562 C 257.226562 186.261719 270.722656 162.566406 270.722656 135.765625 C 270.722656 92.367188 235.398438 57.042969 192 57.042969 C 148.597656 57.042969 113.273438 92.367188 113.273438 135.765625 C 113.273438 162.566406 126.769531 186.261719 147.292969 200.488281 C 108.234375 215.707031 78.746094 250.121094 70.59375 292.15625 C 48.089844 264.917969 34.550781 230.011719 34.550781 192 C 34.550781 105.175781 105.175781 34.550781 192 34.550781 C 278.820312 34.550781 349.445312 105.175781 349.445312 192 C 349.445312 230.011719 335.90625 264.917969 313.390625 292.148438 Z M 313.390625 292.148438 " fill-opacity="1" fill-rule="nonzero"/></g></svg>