<svg xmlns="http://www.w3.org/2000/svg" xmlns:xlink="http://www.w3.org/1999/xlink" width="512" zoomAndPan="magnify" viewBox="0 0 384 383.999986" height="512" preserveAspectRatio="xMidYMid meet" version="1.0"><defs><clipPath id="201cbcef5e"><path d="M 20.070312 75 L 363.570312 75 L 363.570312 314.429688 L 20.070312 314.429688 Z M 20.070312 75 " clip-rule="nonzero"/></clipPath><clipPath id="7b58bd0c5a"><path d="M 33 69.929688 L 351 69.929688 L 351 185 L 33 185 Z M 33 69.929688 " clip-rule="nonzero"/></clipPath></defs><g clip-path="url(#201cbcef5e)"><path fill="#315486" d="M 195.679688 197.085938 C 195.597656 197.125 195.46875 197.167969 195.386719 197.210938 C 195.007812 197.460938 194.589844 197.671875 194.214844 197.796875 C 194.003906 197.878906 193.878906 197.960938 193.710938 198.003906 C 193.167969 198.132812 192.582031 198.257812 192.039062 198.257812 C 191.996094 198.257812 191.996094 198.257812 191.996094 198.257812 C 191.996094 198.257812 191.996094 198.257812 191.953125 198.257812 C 191.410156 198.257812 190.824219 198.132812 190.28125 198.003906 C 190.113281 197.960938 189.988281 197.878906 189.820312 197.796875 C 189.398438 197.671875 188.980469 197.460938 188.605469 197.210938 C 188.519531 197.167969 188.394531 197.125 188.3125 197.085938 L 20.390625 75.914062 L 20.390625 280.984375 C 20.390625 299.234375 35.183594 314.027344 53.433594 314.027344 L 330.554688 314.027344 C 348.808594 314.027344 363.601562 299.234375 363.601562 280.984375 L 363.601562 75.914062 Z M 195.679688 197.085938 " fill-opacity="1" fill-rule="nonzero"/></g><g clip-path="url(#7b58bd0c5a)"><path fill="#315486" d="M 191.996094 184.234375 L 350.457031 69.929688 L 33.53125 69.929688 Z M 191.996094 184.234375 " fill-opacity="1" fill-rule="nonzero"/></g></svg>