<svg xmlns="http://www.w3.org/2000/svg" xmlns:xlink="http://www.w3.org/1999/xlink" width="512" zoomAndPan="magnify" viewBox="0 0 384 383.999986" height="512" preserveAspectRatio="xMidYMid meet" version="1.0"><defs><clipPath id="499e97006d"><path d="M 65.570312 9.761719 L 318.320312 9.761719 L 318.320312 374.261719 L 65.570312 374.261719 Z M 65.570312 9.761719 " clip-rule="nonzero"/></clipPath></defs><g clip-path="url(#499e97006d)"><path fill="#315486" d="M 192.003906 9.71875 C 122.21875 9.71875 65.664062 66.277344 65.664062 136.058594 C 65.664062 147.664062 67.257812 158.894531 70.199219 169.566406 C 72.738281 178.859375 76.300781 187.738281 80.796875 196.050781 C 81.882812 198.054688 83.027344 200.03125 84.210938 201.972656 L 179.460938 366.957031 C 179.664062 367.308594 179.851562 367.679688 180.074219 368.027344 C 182.695312 371.808594 187.054688 374.28125 191.996094 374.28125 C 196.949219 374.28125 201.324219 371.773438 203.9375 367.976562 L 204.34375 367.277344 L 299.765625 202.003906 L 303.210938 196.035156 C 307.699219 187.730469 311.257812 178.847656 313.8125 169.566406 C 316.734375 158.894531 318.335938 147.664062 318.335938 136.058594 C 318.335938 66.277344 261.777344 9.71875 192.003906 9.71875 Z M 191.996094 189.019531 C 162.734375 189.019531 139.015625 165.300781 139.015625 136.058594 C 139.015625 106.796875 162.730469 83.074219 191.996094 83.074219 C 221.253906 83.074219 244.957031 106.796875 244.957031 136.058594 C 244.957031 165.300781 221.253906 189.019531 191.996094 189.019531 Z M 191.996094 189.019531 " fill-opacity="1" fill-rule="nonzero"/></g></svg>