<svg xmlns="http://www.w3.org/2000/svg" xmlns:xlink="http://www.w3.org/1999/xlink" width="512" zoomAndPan="magnify" viewBox="0 0 384 383.999986" height="512" preserveAspectRatio="xMidYMid meet" version="1.0"><path fill="#315486" d="M 68.570312 28.453125 C 68.570312 28.453125 14.304688 89.078125 38.425781 141.347656 C 60.925781 190.109375 128.925781 303.273438 243.085938 349.585938 C 259.75 356.355469 278.03125 359.015625 295.734375 355.796875 C 308.988281 353.386719 345.59375 345.40625 357.625 331.050781 C 358.890625 329.535156 361.257812 327.769531 363.648438 324.113281 C 365.746094 320.894531 369.613281 316.65625 368.15625 309.425781 C 366.203125 299.703125 325.089844 261.765625 309.195312 247.410156 C 304.519531 243.191406 298.515625 240.636719 292.242188 240.636719 C 288.148438 240.636719 284.429688 241.570312 282.914062 244.273438 C 271.820312 263.988281 260.125 277.035156 250.214844 282.230469 C 237.226562 289.042969 156.410156 232.886719 123.792969 167.027344 C 118.742188 156.847656 120.90625 144.570312 129.109375 136.714844 C 139.355469 126.929688 155.890625 110.371094 156.367188 107.007812 C 157.179688 101.375 155.019531 97.886719 151.820312 90.65625 C 149.285156 84.964844 112.367188 48.773438 96.761719 33.648438 C 91.113281 28.164062 83.527344 24.921875 75.65625 25.191406 C 73.058594 25.296875 69.609375 27.207031 68.570312 28.453125 Z M 68.570312 28.453125 " fill-opacity="1" fill-rule="nonzero"/></svg>