<svg xmlns="http://www.w3.org/2000/svg" xmlns:xlink="http://www.w3.org/1999/xlink" width="512" zoomAndPan="magnify" viewBox="0 0 384 383.999986" height="512" preserveAspectRatio="xMidYMid meet" version="1.0"><defs><clipPath id="316ce991aa"><path d="M 16.234375 15.273438 L 367.984375 15.273438 L 367.984375 368.523438 L 16.234375 368.523438 Z M 16.234375 15.273438 " clip-rule="nonzero"/></clipPath></defs><g clip-path="url(#316ce991aa)"><path fill="#315486" d="M 316.511719 66.769531 C 283.46875 33.695312 239.535156 15.449219 192.714844 15.449219 C 96.25 15.449219 17.738281 93.941406 17.703125 190.441406 C 17.703125 221.28125 25.753906 251.40625 41.070312 277.929688 L 16.234375 368.617188 L 109.015625 344.273438 C 134.582031 358.226562 163.359375 365.558594 192.644531 365.578125 L 192.714844 365.578125 C 289.164062 365.578125 367.695312 287.066406 367.710938 190.582031 C 367.710938 143.816406 349.550781 99.863281 316.492188 66.769531 Z M 192.714844 336.03125 L 192.664062 336.03125 C 166.574219 336.03125 140.957031 329.011719 118.621094 315.757812 L 113.3125 312.59375 L 58.25 327.035156 L 72.9375 273.355469 L 69.480469 267.855469 C 54.917969 244.699219 47.234375 217.929688 47.25 190.441406 C 47.285156 110.253906 112.542969 44.996094 192.769531 44.996094 C 231.625 44.996094 268.136719 60.152344 295.605469 87.65625 C 323.074219 115.144531 338.179688 151.691406 338.164062 190.566406 C 338.128906 270.773438 272.871094 336.03125 192.699219 336.03125 Z M 272.503906 227.097656 C 268.136719 224.914062 246.640625 214.332031 242.625 212.882812 C 238.609375 211.414062 235.710938 210.699219 232.792969 215.066406 C 229.875 219.449219 221.496094 229.296875 218.945312 232.214844 C 216.394531 235.128906 213.847656 235.496094 209.460938 233.296875 C 205.097656 231.113281 191.003906 226.484375 174.292969 211.589844 C 161.300781 199.996094 152.515625 185.675781 149.964844 181.292969 C 147.417969 176.910156 149.703125 174.550781 151.886719 172.367188 C 153.84375 170.414062 156.253906 167.253906 158.453125 164.703125 C 160.636719 162.152344 161.371094 160.320312 162.820312 157.402344 C 164.285156 154.488281 163.554688 151.9375 162.453125 149.738281 C 161.351562 147.554688 152.621094 126.023438 148.972656 117.273438 C 145.425781 108.75 141.8125 109.902344 139.140625 109.765625 C 136.589844 109.640625 133.675781 109.605469 130.757812 109.605469 C 127.839844 109.605469 123.109375 110.691406 119.09375 115.074219 C 115.074219 119.457031 103.796875 130.039062 103.796875 151.554688 C 103.796875 173.066406 119.460938 193.867188 121.660156 196.800781 C 123.84375 199.714844 152.5 243.878906 196.367188 262.828125 C 206.789062 267.332031 214.945312 270.019531 221.300781 272.046875 C 231.78125 275.382812 241.316406 274.910156 248.839844 273.777344 C 257.242188 272.519531 274.703125 263.191406 278.355469 252.976562 C 282.003906 242.761719 282.003906 234.011719 280.902344 232.179688 C 279.804688 230.34375 276.886719 229.261719 272.519531 227.0625 Z M 272.503906 227.097656 " fill-opacity="1" fill-rule="evenodd"/></g></svg>